<?xml version="1.0" encoding="UTF-8"?>
<svg xmlns="http://www.w3.org/2000/svg" xmlns:xlink="http://www.w3.org/1999/xlink" viewBox="0 0 646.21 170.08">
  <defs>
    <style>
      .cls-1 {
        fill: url(#linearGradient);
      }

      .cls-1, .cls-2, .cls-3, .cls-4, .cls-5, .cls-6 {
        stroke-width: 0px;
      }

      .cls-2 {
        fill: url(#linearGradient-3);
      }

      .cls-3 {
        fill: url(#linearGradient-4);
      }

      .cls-4 {
        fill: url(#linearGradient-2);
      }

      .cls-5 {
        fill: url(#linearGradient-5);
      }

      .cls-6 {
        fill: #8c8c8c;
      }
    </style>
    <linearGradient id="linearGradient" x1="145.58" y1="-56.32" x2="284.36" y2="79.92" gradientUnits="userSpaceOnUse">
      <stop offset="0" stop-color="#0087ff"/>
      <stop offset="1" stop-color="#00e5ff"/>
    </linearGradient>
    <linearGradient id="linearGradient-2" x1="155.85" y1="-66.78" x2="294.62" y2="69.47" xlink:href="#linearGradient"/>
    <linearGradient id="linearGradient-3" x1="135.46" y1="-46.01" x2="274.23" y2="90.23" xlink:href="#linearGradient"/>
    <linearGradient id="linearGradient-4" x1="164.82" y1="-35.43" x2="294.11" y2="91.5" xlink:href="#linearGradient"/>
    <linearGradient id="linearGradient-5" x1="55.94" y1="34.99" x2="194.71" y2="171.23" xlink:href="#linearGradient"/>
  </defs>
    <g>
      <g>
        <g>
          <path class="cls-6" d="M341.34,94.16v2.92c0,5.46,3.54,10.16,10.62,14.12,3.72,2.04,8.07,3.75,13.04,5.13,4.02,1.14,7.8,1.86,11.33,2.16v7.02c-10.38-.72-19.91-3.06-28.61-7.02-5.04-2.4-8.97-5.1-11.79-8.1-2.7,3-6.57,5.67-11.6,8.01-8.64,4.02-18.29,6.39-28.97,7.11v-7.02c3.18-.3,6.78-.99,10.8-2.07,4.8-1.32,9-2.88,12.59-4.68,7.74-4.02,11.6-8.91,11.6-14.66v-2.92h10.97Z"/>
          <path class="cls-6" d="M355.74,77.92h-54.59v-6.93h54.68c1.49,0,2.7-1.21,2.7-2.7h0c0-1.49-1.21-2.7-2.7-2.7h-54.89v-7.02h52.6c8.82,0,15.97,7.15,15.97,15.97h0c0,8.82-7.15,15.97-15.97,15.97h-52.49v-7.02h54.7c1.54,0,2.79-1.25,2.79-2.79h0c0-1.54-1.25-2.79-2.79-2.79Z"/>
          <path class="cls-6" d="M594.39,87.82l-12.59,29.24h46.5l-10.67-26.65h11.69l14.37,33.76h-75.47l13.94-36.34h-16.91v-7.47h80.96v7.47h-51.82ZM640.09,58.49v7.47h-68.73v-7.47h68.73Z"/>
          <path class="cls-6" d="M520.9,58.94v21.7c0,4.26,3.45,7.71,7.71,7.71h24.31v-21.7c0-4.26-3.45-7.71-7.71-7.71h-24.31ZM543.3,81.61h-9.04c-2.06,0-3.73-1.67-3.73-3.73v-12.19h9.04c2.06,0,3.73,1.67,3.73,3.73v12.19Z"/>
          <polygon class="cls-6" points="482.57 92.5 482.57 98.88 493.55 98.88 498.4 98.88 537.99 98.88 537.99 103.26 537.99 105.18 537.99 111.03 537.99 114.36 537.99 117.68 493.55 117.68 493.55 111.03 531.24 111.03 531.24 105.18 498.4 105.18 493.55 105.18 482.57 105.18 482.57 124.07 548.96 124.07 548.96 92.5 482.57 92.5"/>
          <circle class="cls-6" cx="363.91" cy="100.99" r="6.63"/>
          <circle class="cls-6" cx="305.27" cy="100.99" r="6.63"/>
          <rect class="cls-6" x="388.21" y="60.83" width="33.82" height="6.84"/>
          <path class="cls-6" d="M442.9,65.69v-9h-10.25v9h-8.1v7.02h8.1v5.67c0,14.99-3.12,30.71-9.36,47.14h7.92c7.38-15.41,11.27-31.66,11.69-48.76v-4.05h10.89v36.97c0,3-.6,5.13-1.8,6.39-1.14,1.2-3.21,2.01-6.21,2.43v7.02c6.72-.36,11.36-1.71,13.94-4.05,2.88-2.58,4.32-7.14,4.32-13.67v-42.1h-21.14Z"/>
          <path class="cls-6" d="M416.45,97.95s-1.17,7.24-3.98,13.44h-14.99l7.11-24.74h20.15v-6.84h-39.4v6.84h9.18l-8.73,31.58h32.22s5.16-13.07,5.59-20.27h-7.14Z"/>
          <path class="cls-6" d="M501.21,85.76c3.98,2.58,9.52,4.67,16.63,6.28v-6.3c-3.54-.96-6.3-1.95-8.28-2.97-1.64-.84-2.97-1.8-4.06-2.87-.76,2.34-2.61,4.4-4.29,5.85Z"/>
          <path class="cls-6" d="M493.68,86.26c4.33-2.75,8.06-8.51,8.06-8.51h16.27v-6.3h-16.01v-5.22h13.76v-6.3h-26c.78-1.14,1.44-2.22,1.98-3.24h-10.16c-1.5,4.2-3.57,8.43-6.21,12.68h7.56c1.08-1.32,1.92-2.37,2.52-3.15h6.93v5.22h-16.46v6.3h15.2c-1.14,2.28-3.03,4.14-5.67,5.58-1.98,1.08-4.86,2.13-8.64,3.15v6.3c6.82-1.51,12.18-3.52,16.17-6,.18-.15.4-.32.7-.51Z"/>
        </g>
        <g>
          <path class="cls-6" d="M399.2,144.08h7.41l-11.51,26h-7.41l-7.82-17.66-7.82,17.66h-7.36l-11.51-26h7.41l7.78,17.62,7.82-17.62h7.41l7.78,17.62,7.82-17.62Z"/>
          <path class="cls-6" d="M446.33,155.93c1.41.68,2.53,1.6,3.36,2.75.83,1.16,1.24,2.43,1.24,3.81s-.41,2.66-1.24,3.81c-.83,1.16-1.95,2.08-3.36,2.75-1.41.68-2.95,1.02-4.6,1.02h-19.88v-4.08h17.4c1.2,0,2.22-.34,3.06-1.02.84-.68,1.27-1.51,1.27-2.49s-.42-1.81-1.27-2.49c-.84-.68-1.86-1.02-3.06-1.02h-9.62c-1.66,0-3.18-.33-4.56-1s-2.48-1.57-3.29-2.72-1.22-2.38-1.22-3.72.41-2.6,1.22-3.74c.81-1.13,1.91-2.03,3.29-2.7s2.9-1,4.56-1h19.47v4.04h-17.03c-1.13,0-2.11.33-2.92,1s-1.22,1.47-1.22,2.4.41,1.72,1.22,2.38,1.79.98,2.92.98h9.67c1.66,0,3.19.34,4.6,1.02Z"/>
          <path class="cls-6" d="M498.86,148.79c-.91.43-1.63,1.01-2.16,1.75s-.81,1.55-.81,2.43v2.07h23.01v4.04h-23.01v2.07c0,.88.27,1.69.81,2.43s1.26,1.33,2.16,1.75c.9.43,1.88.64,2.92.64h17.12v4.08h-19.56c-1.96,0-3.77-.4-5.43-1.21s-2.97-1.89-3.93-3.25c-.97-1.36-1.45-2.84-1.45-4.45v-8.19c0-1.61.48-3.1,1.45-4.45.97-1.36,2.28-2.43,3.93-3.23s3.47-1.19,5.43-1.19h19.56v4.04h-17.12c-1.04,0-2.02.21-2.92.64Z"/>
          <path class="cls-6" d="M553.05,170.08h-20.99c-1.72,0-3.29-.35-4.72-1.04-1.43-.69-2.56-1.63-3.41-2.81-.84-1.18-1.27-2.47-1.27-3.85v-10.61c0-1.38.42-2.66,1.27-3.83.84-1.17,1.98-2.1,3.41-2.79,1.43-.69,3-1.04,4.72-1.04h20.99v4.04h-18.5c-1.23,0-2.27.35-3.13,1.04s-1.29,1.55-1.29,2.58v10.61c0,1.01.43,1.86,1.29,2.57s1.9,1.06,3.13,1.06h18.5v4.08Z"/>
          <path class="cls-6" d="M579.79,144.11h7.41v25.96h-7.41v-10.98h-15.6v10.98h-7.36v-25.96h7.36v10.94h15.6v-10.94Z"/>
          <path class="cls-6" d="M483.29,148.6c-.98-1.38-2.32-2.48-4-3.28s-3.53-1.21-5.52-1.21h-19.38v4.04h16.94c1.07,0,2.08.22,3.02.66.93.44,1.67,1.04,2.21,1.81.54.77.81,1.6.81,2.51v7.93c0,.88-.27,1.71-.81,2.47-.54.77-1.27,1.37-2.21,1.81-.94.44-1.94.66-3.02.66h-9.57v-12.28h-7.36v16.36h19.38c1.99,0,3.83-.4,5.52-1.21s3.02-1.9,4-3.28,1.47-2.89,1.47-4.53v-7.93c0-1.64-.49-3.14-1.47-4.53Z"/>
          <rect class="cls-6" x="409.47" y="144.08" width="7.36" height="4.08"/>
          <rect class="cls-6" x="409.47" y="150.11" width="7.36" height="19.97"/>
        </g>
        <rect class="cls-6" x="603.69" y="156.08" width="42.51" height="2.66"/>
        <rect class="cls-6" x="294.59" y="156.08" width="42.51" height="2.66"/>
      </g>
      <g>
        <rect class="cls-1" x="215.65" y="12.35" width="12.33" height="12.33"/>
        <rect class="cls-4" x="239.06" y="14.71" width="22.84" height="22.84"/>
        <rect class="cls-2" x="231.6" y="48.26" width="12.73" height="12.73"/>
        <rect class="cls-3" x="254.38" y="52.39" width="11.86" height="11.86"/>
        <path class="cls-5" d="M217.68,70.76c.75-3.91,1.15-7.97,1.15-12.12,0-32.39-23.91-58.64-53.4-58.64-22.16,0-41.16,14.82-49.24,35.93-7.36-7.72-17.33-12.47-28.31-12.47-22.65,0-41.01,20.16-41.01,45.04,0,.69.02,1.37.05,2.05-.52-.02-1.04-.04-1.57-.04C20.3,70.5,0,92.79,0,120.29s20.3,49.79,45.34,49.79h41.51l-46.74-82.1h53.94l29.63,49.25-18.5,32.85h48.94l48.07-87.58h14.34l-47.66,87.58h44.13c25.04,0,45.34-22.29,45.34-49.79,0-25.76-17.82-46.95-40.66-49.53ZM193.29,62.34l-50.94,90.4-23.16-38.61,30.45-51.79h-25.01l61.43-36.2,32.16,36.2h-24.93Z"/>
      </g>
    </g>
</svg>